<?xml version="1.0" ?>
<!DOCTYPE svg  PUBLIC '-//W3C//DTD SVG 1.1//EN'  'http://www.w3.org/Graphics/SVG/1.1/DTD/svg11.dtd'>
<!-- Uploaded to: SVG Repo, www.svgrepo.com, Generator: SVG Repo Mixer Tools -->
<svg fill="#000000" width="800px" height="800px" viewBox="0 0 129.921 129.921" enable-background="new 0 0 129.921 129.921" version="1.1" xml:space="preserve" xmlns="http://www.w3.org/2000/svg" xmlns:xlink="http://www.w3.org/1999/xlink">
<g id="Layer_2"/>
<g id="Layer_1">
<g>
<g>
<path d="M66.057,115.946c-21.963,0-39.832-17.869-39.832-39.833c0-7.026,1.938-13.959,5.758-20.609     c0.289-0.502,0.575-0.991,0.855-1.472c2.234-3.819,3.847-6.578,3.848-10.689c0.001-16.193,13.177-29.367,29.371-29.367     c10.612,0.001,20.51,5.822,25.831,15.192c2.343,4.126,2.77,8.254,3.182,12.246c0.075,0.725,0.15,1.458,0.239,2.2     c0.188,1.582,0.515,3.037,1,4.45c0.796,2.313,1.984,4.447,3.645,7.141c3.883,6.3,5.936,13.53,5.936,20.908     C105.89,98.077,88.021,115.946,66.057,115.946z M66.057,19.921c-12.916,0-23.424,10.507-23.426,23.423     c0,5.722-2.264,9.592-4.661,13.69c-0.273,0.468-0.552,0.943-0.833,1.432c-3.296,5.737-4.967,11.674-4.967,17.647     C32.17,94.797,47.372,110,66.057,110c18.686,0,33.888-15.203,33.888-33.888c0-6.274-1.747-12.426-5.052-17.789     c-1.874-3.041-3.23-5.494-4.205-8.326c-0.625-1.817-1.045-3.676-1.283-5.683c-0.092-0.773-0.171-1.537-0.249-2.291     c-0.381-3.691-0.71-6.879-2.438-9.921C82.451,24.589,74.534,19.921,66.057,19.921z"/>
</g>
<g>
<path d="M66.057,100.825c-12.129,0-21.997-9.868-21.997-21.996c0-12.13,9.867-21.999,21.997-21.999     c12.129,0,21.997,9.869,21.997,21.999C88.054,90.957,78.186,100.825,66.057,100.825z M66.057,62.776     c-8.851,0-16.051,7.201-16.051,16.053c0,8.85,7.2,16.051,16.051,16.051s16.052-7.201,16.052-16.051     C82.109,69.977,74.908,62.776,66.057,62.776z"/>
</g>
</g>
</g>
</svg>